<?xml version="1.0" encoding="UTF-8"?>
<svg width="198" height="108.12" version="1.1" viewBox="0 0 198 108.12" xml:space="preserve" xmlns="http://www.w3.org/2000/svg">
<title>DXC Technology logo</title>
<style type="text/css">
	.st0{fill:#5F249F;}
</style>
<g id="vlpa" transform="matrix(2.1292 0 0 2.1292 -.48973 -.8517)">
		<path d="m4.43 44.66v6.38h-1.76v-6.38h-2.44v-1.62h6.63v1.62zm4.79 6.38v-8h6.04v1.57h-4.29v1.62h3.77v1.57h-3.77v1.68h4.35v1.57h-6.1zm12.49 0.14c-2.36 0-4.11-1.82-4.11-4.12v-0.02c0-2.28 1.72-4.14 4.17-4.14 1.51 0 2.41 0.5 3.16 1.24l-1.12 1.29c-0.62-0.56-1.25-0.9-2.05-0.9-1.35 0-2.32 1.12-2.32 2.49v0.02c0 1.37 0.95 2.52 2.32 2.52 0.91 0 1.48-0.37 2.1-0.94l1.12 1.13c-0.81 0.88-1.73 1.43-3.27 1.43zm10.74-0.14v-3.21h-3.25v3.21h-1.76v-8h1.76v3.17h3.25v-3.17h1.76v8zm10.5 0-3.88-5.09v5.09h-1.74v-8h1.62l3.75 4.93v-4.93h1.74v8zm8.3 0.14c-2.47 0-4.24-1.84-4.24-4.12v-0.02c0-2.28 1.8-4.14 4.27-4.14s4.24 1.84 4.24 4.12v0.02c-0.01 2.28-1.8 4.14-4.27 4.14zm2.42-4.14c0-1.37-1.01-2.52-2.42-2.52-1.42 0-2.4 1.12-2.4 2.49v0.02c0 1.37 1.01 2.52 2.42 2.52s2.4-1.12 2.4-2.49zm4.37 4v-8h1.76v6.4h3.99v1.6zm11.69 0.14c-2.47 0-4.24-1.84-4.24-4.12v-0.02c0-2.28 1.8-4.14 4.27-4.14s4.24 1.84 4.24 4.12v0.02c-0.01 2.28-1.8 4.14-4.27 4.14zm2.42-4.14c0-1.37-1.01-2.52-2.42-2.52-1.42 0-2.4 1.12-2.4 2.49v0.02c0 1.37 1.01 2.52 2.42 2.52s2.4-1.12 2.4-2.49zm8.18 4.14c-2.49 0-4.21-1.75-4.21-4.12v-0.02c0-2.28 1.77-4.14 4.2-4.14 1.44 0 2.31 0.39 3.14 1.1l-1.11 1.34c-0.62-0.51-1.17-0.81-2.09-0.81-1.28 0-2.3 1.13-2.3 2.49v0.02c0 1.46 1.01 2.54 2.42 2.54 0.64 0 1.21-0.16 1.66-0.48v-1.14h-1.77v-1.52h3.48v3.48c-0.83 0.69-1.96 1.26-3.42 1.26zm9.82-3.33v3.19h-1.76v-3.16l-3.08-4.85h2.06l1.91 3.21 1.94-3.21h2z"/>
		<path class="st0" d="m30.98 21.16c-0.21 1.41-0.61 2.79-1.24 4.15-0.92 2.08-2.2 4.08-3.92 5.76-3.24 3.28-8.08 5.36-13.03 5.36h-12.52v-7.2h12.51c2.96 0 5.8-1.12 7.72-3.12 1.39-1.41 2.36-3.13 2.86-4.95zm0-5.49c-0.21-1.41-0.61-2.79-1.24-4.15-0.92-2.08-2.2-4.08-3.92-5.76-3.24-3.28-8.08-5.36-13.04-5.36h-12.51v7.2h12.51c2.96 0 5.8 1.12 7.72 3.12 1.39 1.41 2.36 3.13 2.86 4.95zm15.71 8.73-9.56 12.03h-9.48l14.31-18.01-14.3-18.02h9.48l9.56 12.02 9.55-12.02h9.48l-14.32 18.02 14.31 18.01h-9.48zm23.33-3.24c0.5 1.82 1.47 3.54 2.86 4.95 1.92 2 4.76 3.12 7.72 3.12h12.51v7.2h-12.51c-4.96 0-9.8-2.08-13.03-5.36-1.72-1.68-3-3.68-3.92-5.76-0.63-1.36-1.03-2.74-1.24-4.15zm0-5.49c0.5-1.82 1.47-3.54 2.86-4.95 1.92-2 4.76-3.12 7.72-3.12h12.51v-7.2h-12.51c-4.96 0-9.8 2.08-13.03 5.36-1.72 1.68-3 3.68-3.92 5.76-0.63 1.36-1.03 2.74-1.24 4.15z"/>
</g>
</svg>
